# xmcd
# 
# Track frame offsets:
#     150
#     3188
#     17900
#     31073
#     46179
#     47729
#     60755
#     78563
#     88981
#     101652
#     103904
#     117830
#     129897
#     143666
#     157009
#     171306
#     173089
#     186499
#     196833
#     210930
#     220174
#     222450
#     234813
#     245058
#     258304
#     270336
#     285027
# 
# Disc length: 3855
# 
# Revision: 5
# Processed by: cddbd v1.5.2PL0 Copyright (c) Steve Scherf et al.
# Submitted via: fre:ac v1.0.31
# 
DISCID=6b0f0d1b
DTITLE=Toten Hosen - Learning English Lesson 2
DYEAR=0
DGENRE=Punk Rock
TTITLE0=Step 1: Welcome To Learning English Lesson 2
TTITLE1=The Sound Of The Suburbs [featuring JC Carroll (The Members)]
TTITLE2=Where Are They Now [featuring Colin McFaull (Cock Sparrer)]
TTITLE3=California über Alles [featuring Jello Biafra (Dead Kennedys)]
TTITLE4=Step 2: Revolution
TTITLE5=Viva La Revolution [featuring Monkey and Pete (The Adicts)]
TTITLE6=Nobody's Hero [featuring Jake Burns (Stiff Little Fingers)]
TTITLE7=Teenage Kicks [featuring Damian O'Neill (The Undertones)]
TTITLE8=Flying Saucer Attack! [featuring Fay Fife and Eugene Reynolds (The Rezillos)]
TTITLE9=Step 3: How About A Knuckle-Sandwich?
TTITLE10=Where Have All The Boot Boys Gone? [featuring Wayne Barrett (Slaughter and The Dogs)]
TTITLE11=Sonic Reducer [featuring Cheetah Chrome (Dead Boys)]
TTITLE12=Lookin' After No. 1 [featuring Bob Geldof (The Boomtown Rats)]
TTITLE13=The Jinx [featuring Peter Bywaters (Peter and The Test Tube Babies)]
TTITLE14=Your Generation [featuring Tony James (Generation X)]
TTITLE15=Step 4: Family Plannings
TTITLE16=Darling, Let's Have Another Baby [featuring Johnny Moped]
TTITLE17=Where's Captain Kirk? [featuring Kenneth "Spizz" Spiers (Spizzenergi)]
TTITLE18=Harmony In My Head [featuring Steve Diggle (Buzzcocks)]
TTITLE19=This Perfect Day [featuring Chris Bailey (The Saints)]
TTITLE20=Step 5: Sprechen Sie Deutsch?
TTITLE21=Wunderbar [featuring Eddie Tudor Pole (Tenpole Tudor)]
TTITLE22=I'm An Upstart [featuring Thomas "Mensi" Mensforth (Angelic Upstarts)]
TTITLE23=(Get A) Grip (On Yourself) [featuring Hugh Cornwell (The Stranglers)]
TTITLE24=Fight To Be Yourself [featuring "Mad" Phil Thompson (Pasty Faces)]
TTITLE25=Staring At The Rude Boys [featuring John "Segs" Jennings (The Ruts)]
TTITLE26=Janet And John Say Goodbye
EXTD=
EXTT0=
EXTT1=
EXTT2=
EXTT3=
EXTT4=
EXTT5=
EXTT6=
EXTT7=
EXTT8=
EXTT9=
EXTT10=
EXTT11=
EXTT12=
EXTT13=
EXTT14=
EXTT15=
EXTT16=
EXTT17=
EXTT18=
EXTT19=
EXTT20=
EXTT21=
EXTT22=
EXTT23=
EXTT24=
EXTT25=
EXTT26=
PLAYORDER=
